<?xml version="1.0" encoding="UTF-8"?>
<svg xmlns="http://www.w3.org/2000/svg" style="color: rgb(30, 30, 30);"
     viewBox="125 110 695 230"
     width="695"
     height="230">
  <path d="M180,240 L180,240 L180,300 L210,300 L210,240 L180,240 M240,270 L240,270 L240,285 L255,300 L270,285 L285,300 L300,285 L300,270 M330,240 L330,240 L330,300 L360,300 L360,240 L330,240 M420,240 L420,240 L390,240 L390,300 M420,270 L420,270 L390,270 M450,240 L450,240 L450,300 L480,300 L480,240 L450,240 M510,240 L510,240 L510,255 L540,285 L540,300 M540,240 L540,240 L540,255 L510,285 L510,300 M570,300 L570,300 L570,285 M630,240 L630,240 L600,240 L600,300 L630,300 M660,240 L660,240 L660,300 L690,300 L690,240 L660,240 M720,300 L720,300 L720,240 L735,255 L750,240 L750,300 L750,300 L750,300 M150,330 L150,330 L150,300 L150,300 L135,285 L135,255 L150,240 M390,210 L390,210 L390,195 L330,135 L315,135 L315,210 L300,195 L240,195 L225,210 L150,135 L135,135 L135,195 L150,210 L150,240 M150,330 L150,330 L810,330"
        style="stroke-width: 15; stroke-linecap: round; stroke-linejoin: round; stroke: currentColor; fill: none;"/>
</svg>
